<svg xmlns="http://www.w3.org/2000/svg" width="1991" height="871" viewBox="0 0 1991 871" fill="none"><path d="M1069 282.283L1691 144.42V302.297L1069 442.51L1069 282.283Z" fill="url(#paint0_linear_3226_7692)"></path><path d="M395.248 779.436L696.937 726.333L694.783 802.525L393.063 856.763L395.248 779.436Z" fill="url(#paint1_linear_3226_7692)"></path><path d="M240 355.423L540 288.936V365.076L240 432.696L240 355.423Z" fill="url(#paint2_linear_3226_7692)"></path><path d="M0.500008 449.109L0.5 291.011L617.5 154.319V310.087L0.500008 449.109Z" stroke="white" stroke-opacity="0.3"></path><path d="M1691 67.0459L1991 0.471309V76.711L1691 144.42L1691 67.0459Z" fill="url(#paint3_linear_3226_7692)"></path><defs><linearGradient id="paint0_linear_3226_7692" x1="1691" y1="218.169" x2="1149.19" y2="69.9564" gradientUnits="userSpaceOnUse"><stop stop-color="white" stop-opacity="0.15"></stop><stop offset="1" stop-color="white" stop-opacity="0.05"></stop></linearGradient><linearGradient id="paint1_linear_3226_7692" x1="695.931" y1="761.924" x2="435.64" y2="682.481" gradientUnits="userSpaceOnUse"><stop stop-color="white" stop-opacity="0"></stop><stop offset="1" stop-color="white" stop-opacity="0.15"></stop></linearGradient><linearGradient id="paint2_linear_3226_7692" x1="540" y1="324.503" x2="278.678" y2="253.012" gradientUnits="userSpaceOnUse"><stop stop-color="white" stop-opacity="0.2"></stop><stop offset="1" stop-color="white" stop-opacity="0.15"></stop></linearGradient><linearGradient id="paint3_linear_3226_7692" x1="1991" y1="36.085" x2="1729.63" y2="-35.3249" gradientUnits="userSpaceOnUse"><stop stop-color="white" stop-opacity="0"></stop><stop offset="1" stop-color="white" stop-opacity="0.15"></stop></linearGradient></defs></svg>